{
	"asset":{
		"generator":"Khronos glTF Blender I/O v4.0.44",
		"version":"2.0"
	},
	"scene":0,
	"scenes":[
		{
			"name":"Scene",
			"nodes":[
				0
			]
		}
	],
	"nodes":[
		{
			"mesh":0,
			"name":"Cube_062.001",
			"translation":[
				-2.9859116077423096,
				4.62200927734375,
				0.008281208574771881
			]
		}
	],
	"materials":[
		{
			"alphaMode":"BLEND",
			"name":"Material",
			"pbrMetallicRoughness":{
				"baseColorFactor":[
					0.800000011920929,
					0.800000011920929,
					0.800000011920929,
					1
				],
				"metallicFactor":0,
				"roughnessFactor":0.1818181872367859
			}
		}
	],
	"meshes":[
		{
			"name":"Cube_064",
			"primitives":[
				{
					"attributes":{
						"POSITION":0,
						"NORMAL":1
					},
					"indices":2,
					"material":0
				}
			]
		}
	],
	"accessors":[
		{
			"bufferView":0,
			"componentType":5126,
			"count":90,
			"max":[
				0.06751957535743713,
				0.7668322324752808,
				0.0855451226234436
			],
			"min":[
				-0.05773351341485977,
				0.6967511177062988,
				-0.041575197130441666
			],
			"type":"VEC3"
		},
		{
			"bufferView":1,
			"componentType":5126,
			"count":90,
			"type":"VEC3"
		},
		{
			"bufferView":2,
			"componentType":5123,
			"count":528,
			"type":"SCALAR"
		}
	],
	"bufferViews":[
		{
			"buffer":0,
			"byteLength":1080,
			"byteOffset":0,
			"target":34962
		},
		{
			"buffer":0,
			"byteLength":1080,
			"byteOffset":1080,
			"target":34962
		},
		{
			"buffer":0,
			"byteLength":1056,
			"byteOffset":2160,
			"target":34963
		}
	],
	"buffers":[
		{
			"byteLength":3216,
			"uri":"test%20air.bin"
		}
	]
}
